<?xml version="1.0" encoding="UTF-8" standalone="no"?>
<!-- Created with Inkscape (http://www.inkscape.org/) -->

<svg
   version="1.1"
   id="svg9"
   width="519.58832"
   height="519.58832"
   viewBox="0 0 519.58832 519.58832"
   sodipodi:docname="ippai_food.svg"
   inkscape:version="1.1.1 (3bf5ae0d25, 2021-09-20)"
   xmlns:inkscape="http://www.inkscape.org/namespaces/inkscape"
   xmlns:sodipodi="http://sodipodi.sourceforge.net/DTD/sodipodi-0.dtd"
   xmlns="http://www.w3.org/2000/svg"
   xmlns:svg="http://www.w3.org/2000/svg">
  <defs
     id="defs13" />
  <sodipodi:namedview
     id="namedview11"
     pagecolor="#505050"
     bordercolor="#eeeeee"
     borderopacity="1"
     inkscape:pageshadow="0"
     inkscape:pageopacity="0"
     inkscape:pagecheckerboard="0"
     showgrid="false"
     inkscape:zoom="0.90363636"
     inkscape:cx="303.77264"
     inkscape:cy="235.16097"
     inkscape:window-width="1920"
     inkscape:window-height="1051"
     inkscape:window-x="1911"
     inkscape:window-y="-9"
     inkscape:window-maximized="1"
     inkscape:current-layer="layer2" />
  <g
     inkscape:groupmode="layer"
     id="layer3"
     inkscape:label="Image 3"
     style="display:inline"
     transform="translate(108.18477,39.125626)"
     sodipodi:insensitive="true">
    <circle
       style="fill:#ca3936;fill-opacity:1;stroke:none;stroke-width:11.4483;stroke-linecap:round;stroke-miterlimit:4;stroke-dasharray:none;stroke-opacity:1"
       id="path38708"
       cx="151.60939"
       cy="220.66853"
       r="259.79416" />
  </g>
  <g
     inkscape:groupmode="layer"
     id="layer1"
     inkscape:label="Image 1"
     transform="translate(108.18477,39.125626)"
     sodipodi:insensitive="true">
    <path
       id="rect686"
       style="fill:#000000;stroke-width:1.37046"
       d="m 59.205078,19.734375 c -11.824021,0 -23.648807,4.529667 -32.708984,13.589844 l -5.896485,5.898437 c -18.1203536,18.120354 -18.1203536,47.297615 0,65.417964 27.578134,24.50715 83.927541,6.42798 106.416701,-14.74894 0,0 -6.64792,-27.3272 -29.20381,-50.669024 L 91.914062,33.324219 C 82.853885,24.264042 71.0291,19.734375 59.205078,19.734375 Z"
       sodipodi:nodetypes="scccccss" />
    <path
       id="rect686-7"
       style="fill:#000000;stroke-width:1.37046"
       d="m 244.01369,19.734375 c 11.82402,0 23.6488,4.529667 32.70898,13.589844 l 5.89648,5.898437 c 18.12036,18.120354 18.12036,47.297615 0,65.417964 -27.57813,24.50715 -83.92754,6.42798 -106.4167,-14.74894 0,0 6.64792,-27.3272 29.20381,-50.669024 l 5.89844,-5.898437 c 9.06018,-9.060177 20.88496,-13.589844 32.70899,-13.589844 z"
       sodipodi:nodetypes="scccccss" />
    <path
       id="path152-6"
       style="fill:#ffffff;fill-opacity:1;stroke:#000000;stroke-width:5;stroke-linecap:butt;stroke-linejoin:miter;stroke-miterlimit:4;stroke-dasharray:none;stroke-opacity:1"
       d="M 147.76367,29.75 C 130.48511,29.71533 59.779244,35.518939 34.306641,130.58398 6.9884174,232.53697 71.309392,249.54688 94.548828,249.54688 h 57.060552 57.06054 c 23.23943,0 87.56042,-17.00991 60.24219,-118.9629 C 243.43951,35.518939 172.73364,29.71533 155.45508,29.75 c -2.46837,0.005 -3.8457,0.128906 -3.8457,0.128906 0,0 -1.37734,-0.123953 -3.84571,-0.128906 z" />
    <circle
       style="fill:#000000"
       id="path590-2"
       cx="-214.69702"
       cy="147.60143"
       r="17.313089"
       transform="scale(-1,1)" />
    <path
       style="fill:none;fill-opacity:1;stroke:#ff0044;stroke-width:4;stroke-linecap:round;stroke-linejoin:miter;stroke-miterlimit:4;stroke-dasharray:none;stroke-opacity:1"
       d="m 249.13174,174.71076 c 0,0 -2.35161,-0.27666 -2.62827,-2.21327 -0.27666,-1.93662 -1.65996,-8.2998 -3.59658,-3.45825 -1.93662,4.84154 -3.73491,9.95975 -5.5332,5.80985 -1.79829,-4.14989 -4.56489,-9.68309 -4.97988,-5.25653 -0.41499,4.42655 -0.55332,12.86468 -7.88481,0.13833"
       id="path662-6" />
    <path
       id="rect1479-6"
       style="fill:#000000;stroke-width:0.982275"
       d="m 89.789062,182.31836 4.695313,67.22852 H 208.73438 l 4.69531,-67.22852 z"
       sodipodi:nodetypes="ccccc" />
    <path
       id="rect1479-6-6"
       style="fill:#ffffff;fill-opacity:1;stroke:none;stroke-width:0.982275"
       d="m 93.736689,186.22863 3.146484,45.04101 0.119629,-42.00044 112.331648,-3.04057 z"
       sodipodi:nodetypes="ccccc" />
    <path
       id="path391"
       style="fill:none;stroke:#000000;stroke-width:5;stroke-linecap:round;stroke-linejoin:miter;stroke-miterlimit:4;stroke-dasharray:none;stroke-opacity:1"
       d="m 135.28711,159.77539 c 0,11.41577 16.32227,12.16269 16.32227,0 0,12.16269 16.32226,11.41577 16.32226,0"
       sodipodi:nodetypes="ccc" />
    <circle
       style="fill:#000000"
       id="path590"
       cx="88.521729"
       cy="147.60143"
       r="17.313089" />
    <path
       style="fill:none;fill-opacity:1;stroke:#ff0044;stroke-width:4;stroke-linecap:round;stroke-linejoin:miter;stroke-miterlimit:4;stroke-dasharray:none;stroke-opacity:1"
       d="m 54.087022,174.71076 c 0,0 2.35161,-0.27666 2.62827,-2.21327 0.27666,-1.93662 1.65996,-8.2998 3.596579,-3.45825 1.93662,4.84154 3.73491,9.95975 5.533199,5.80985 1.79829,-4.14989 4.56489,-9.68309 4.97988,-5.25653 0.41499,4.42655 0.55332,12.86468 7.884809,0.13833"
       id="path662" />
    <circle
       style="fill:#ffffff;fill-opacity:1;stroke:none;stroke-width:12.9888;stroke-linecap:round;stroke-miterlimit:4;stroke-dasharray:none;stroke-opacity:1"
       id="path6337"
       cx="81.881889"
       cy="140.40826"
       r="6.3524399" />
    <circle
       style="fill:#ffffff;fill-opacity:1;stroke:none;stroke-width:12.9888;stroke-linecap:round;stroke-miterlimit:4;stroke-dasharray:none;stroke-opacity:1"
       id="path6337-2"
       cx="208.05719"
       cy="140.40826"
       r="6.3524399" />
    <circle
       style="fill:#ffffff;fill-opacity:1;stroke:none;stroke-width:6.48342;stroke-linecap:round;stroke-miterlimit:4;stroke-dasharray:none;stroke-opacity:1"
       id="path6337-7"
       cx="92.948288"
       cy="152.30464"
       r="3.1708503" />
    <circle
       style="fill:#ffffff;fill-opacity:1;stroke:none;stroke-width:6.48342;stroke-linecap:round;stroke-miterlimit:4;stroke-dasharray:none;stroke-opacity:1"
       id="path6337-2-3"
       cx="219.12358"
       cy="152.30464"
       r="3.1708503" />
  </g>
  <g
     inkscape:groupmode="layer"
     id="layer2"
     inkscape:label="Image 2"
     transform="translate(108.18477,39.125626)"
     style="display:inline">
    <text
       xml:space="preserve"
       style="font-style:normal;font-variant:normal;font-weight:bold;font-stretch:normal;font-size:78.66666667px;line-height:1.25;font-family:Arial;-inkscape-font-specification:'Arial Bold';fill:#ffffff;fill-opacity:1;stroke:none;stroke-width:1.608"
       x="-65.34549"
       y="326.17111"
       id="text10879"><tspan
         sodipodi:role="line"
         id="tspan10877"
         x="-65.34549"
         y="326.17111"
         style="fill:#ffffff;fill-opacity:1;stroke-width:1.608;font-size:78.66666667px">Panda Food</tspan></text>
    <text
       xml:space="preserve"
       style="font-style:normal;font-weight:normal;font-size:28.9058px;line-height:1.25;font-family:sans-serif;fill:#ffffff;fill-opacity:1;stroke:none;stroke-width:0.722643"
       x="-44.460442"
       y="352.69202"
       id="text19875"
       transform="scale(0.94337362,1.0600254)"><tspan
         sodipodi:role="line"
         id="tspan19873"
         x="-44.460442"
         y="352.69202"
         style="fill:#ffffff;fill-opacity:1;stroke-width:0.722643">Satisfação em comer bem!!!</tspan></text>
  </g>
</svg>
